<?xml version="1.0" standalone="no"?><!DOCTYPE svg PUBLIC "-//W3C//DTD SVG 1.1//EN" "http://www.w3.org/Graphics/SVG/1.1/DTD/svg11.dtd"><svg t="1707058139966" class="icon" viewBox="0 0 1024 1024" version="1.1" xmlns="http://www.w3.org/2000/svg" p-id="29937" xmlns:xlink="http://www.w3.org/1999/xlink" width="200" height="200"><path d="M922.4 748.9H147.2v-639c0-25.2-20.4-45.6-45.6-45.6C76.4 64.2 56 84.7 56 109.8V794.4c0 25.2 20.4 45.6 45.6 45.6h121.9c-3 9.1-5.1 18.6-5.1 28.7 0 50.4 40.8 91.2 91.2 91.2 50.4 0 91.2-40.8 91.2-91.2 0-10.1-2-19.6-5.1-28.7h315.1c-3 9.1-5.1 18.6-5.1 28.7 0 50.4 40.8 91.2 91.2 91.2 50.4 0 91.2-40.8 91.2-91.2 0-10.1-2-19.6-5.1-28.7h39.3c25.2 0 45.6-20.4 45.6-45.6 0.1-25.1-20.3-45.5-45.5-45.5z" p-id="29938" fill="#ffffff"></path><path d="M239.1 360.4h661.2c25.2 0 45.6-20.4 45.6-45.6V109.6c0-25.2-20.4-45.6-45.6-45.6H239.1c-25.2 0-45.6 20.4-45.6 45.6v205.2c0 25.2 20.5 45.6 45.6 45.6z m92-228h22.8c12.6 0 22.8 10.2 22.8 22.8 0 12.6-10.2 22.8-22.8 22.8h-22.8c-25.6 0-46.4 20.8-46.4 46.4 0 12.6-10.2 22.8-22.8 22.8-12.6 0-22.8-10.2-22.8-22.8 0-50.7 41.3-92 92-92zM239.1 703.1h661.2c25.2 0 45.6-20.4 45.6-45.6V452.3c0-25.2-20.4-45.6-45.6-45.6H239.1c-25.2 0-45.6 20.4-45.6 45.6v205.2c0 25.2 20.5 45.6 45.6 45.6z m92-224.2h22.8c12.6 0 22.8 10.2 22.8 22.8 0 12.6-10.2 22.8-22.8 22.8h-22.8c-25.6 0-46.4 20.8-46.4 46.4 0 12.6-10.2 22.8-22.8 22.8-12.6 0-22.8-10.2-22.8-22.8 0-50.7 41.3-92 92-92z" p-id="29939" fill="#ffffff"></path></svg>