<?xml version="1.0" standalone="no"?><!DOCTYPE svg PUBLIC "-//W3C//DTD SVG 1.1//EN" "http://www.w3.org/Graphics/SVG/1.1/DTD/svg11.dtd"><svg t="1705323953908" class="icon" viewBox="0 0 1024 1024" version="1.1" xmlns="http://www.w3.org/2000/svg" p-id="13775" xmlns:xlink="http://www.w3.org/1999/xlink" width="200" height="200"><path d="M800 800h64v64h-64v-64z m-128 0h64v64h-64v-64z m-128 0h64v64h-64v-64z m-128 0h64v64h-64v-64z m-256 0h64v64h-64v-64z m0-640h64v64h-64v-64z m128 640h64v64h-64v-64zM160 672h64v64h-64v-64z m0-128h64v64h-64v-64z m0-128h64v64h-64v-64z m0-128h64v64h-64v-64z m640 384h64v64h-64v-64z m0-128h64v64h-64v-64z m0-128h64v64h-64v-64z m0-128h64v64h-64v-64z m0-128h64v64h-64v-64z m-128 0h64v64h-64v-64z m-128 0h64v64h-64v-64z m-128 0h64v64h-64v-64z m-128 0h64v64h-64v-64z" fill="#ffffff" p-id="13776"></path><path d="M896 64H128c-35.2 0-64 28.8-64 64v768c0 35.2 28.8 64 64 64h768c35.2 0 64-28.8 64-64V128c0-35.2-28.8-64-64-64z m0 800c0 19.2-12.8 32-32 32H160c-19.2 0-32-12.8-32-32V160c0-19.2 12.8-32 32-32h704c19.2 0 32 12.8 32 32v704z" fill="#ffffff" p-id="13777"></path></svg>