<?xml version="1.0" standalone="no"?><!DOCTYPE svg PUBLIC "-//W3C//DTD SVG 1.1//EN" "http://www.w3.org/Graphics/SVG/1.1/DTD/svg11.dtd"><svg t="1707058051999" class="icon" viewBox="0 0 1024 1024" version="1.1" xmlns="http://www.w3.org/2000/svg" p-id="26023" xmlns:xlink="http://www.w3.org/1999/xlink" width="200" height="200"><path d="M1024 555.064c0-44.373-51.881-87.65-121.346-110.636-3.181-1.051-23.181-10.066-10.694-48.117h-0.156c32.604-33.519 57.504-87.61 57.504-140.759 0-81.836-54.383-124.682-117.601-124.682-63.238 0-117.325 42.846-117.325 124.682 0 53.424 24.78 107.627 57.56 141.15 12.78 33.523-10.09 45.971-14.849 47.725-16.548 5.97-32.428 13.191-46.946 21.347V435.18c0-44.373-57.716-87.65-127.18-110.636-3.181-1.051-23.181-10.066-10.694-48.117h-0.156c32.604-33.519 57.504-87.61 57.504-140.759 0-81.836-54.383-124.682-117.601-124.682-63.238 0-117.325 42.846-117.325 124.682 0 53.424 24.78 107.627 57.56 141.15 12.78 33.523-10.09 45.971-14.849 47.725-66.183 23.961-121.873 67.554-121.873 110.636v31.609c-15.005-8.508-31.413-16.116-48.625-22.362-4.759-1.754-27.629-14.202-14.85-47.725 32.78-33.523 57.56-87.726 57.56-141.15 0-81.836-54.087-124.682-117.325-124.682-63.218 0-117.601 42.846-117.601 124.682 0 53.148 24.9 107.239 57.504 140.759h-0.156c12.488 38.051-7.513 47.066-10.694 48.117C51.881 467.414 0 510.691 0 555.064v205.307c0 0.428 0.216 0.739 0.236 1.171-0.02 0.82-0.236 1.639-0.236 2.458 0 111.259 125.677 206.79 305.542 249.013v-62.087c0-50.77 64.525-96.897 128.467-120.039 0 0 6.829-2.769 10.166-10.146 2.753-6.046 2.558-13.699-0.583-22.75-35.825-37.579-58.887-94.831-58.887-146.577 0-93.033 63.942-134.672 127.316-134.672 63.51 0 127.591 41.639 127.591 134.672 0 51.162-22.87 108.058-58.439 145.758-6.909 22.594-0.216 31.765 4.975 33.639 61.796 20.448 133.989 64.193 133.989 120.115v61.66C899.082 970.167 1024 874.908 1024 764c0-0.819-0.216-1.638-0.236-2.458 0.02-0.432 0.236-0.743 0.236-1.171V555.064z" p-id="26024" fill="#ffffff"></path></svg>