<?xml version="1.0" standalone="no"?>
<!DOCTYPE svg PUBLIC "-//W3C//DTD SVG 1.1//EN" "http://www.w3.org/Graphics/SVG/1.1/DTD/svg11.dtd"><svg t="1708353057983"
  class="icon" viewBox="0 0 1024 1024" version="1.1" xmlns="http://www.w3.org/2000/svg" p-id="10568"
  xmlns:xlink="http://www.w3.org/1999/xlink" width="200" height="200">
  <path
    d="M384 93.3888a205.2096 205.2096 0 1 0 0 410.4704 205.2096 205.2096 0 0 0 0-410.4704zM247.9616 298.6496a136.0896 136.0896 0 1 1 272.2304 0 136.0896 136.0896 0 0 1-272.2304 0zM213.3504 605.3888a205.2096 205.2096 0 0 0-205.2608 205.2608v85.2992a34.56 34.56 0 1 0 69.12 0v-85.2992a136.1408 136.1408 0 0 1 136.1408-136.1408h341.2992a136.0896 136.0896 0 0 1 136.1408 136.1408v85.2992a34.56 34.56 0 1 0 69.12 0v-85.2992a205.2096 205.2096 0 0 0-205.2608-205.2608H213.3504zM819.8656 636.7232a34.56 34.56 0 0 1 42.0864-24.832 205.2096 205.2096 0 0 1 153.9072 198.5536v85.4016a34.56 34.56 0 1 1-69.12 0V810.496a136.0896 136.0896 0 0 0-102.0416-131.6864 34.56 34.56 0 0 1-24.832-42.0864zM691.2 99.84a34.56 34.56 0 1 0-17.1008 67.0208 136.0896 136.0896 0 0 1 0 263.68 34.56 34.56 0 0 0 17.152 66.9696 205.2096 205.2096 0 0 0 0-397.6192z"
    fill="#ffffff" p-id="10569"></path>
</svg>