<?xml version="1.0" standalone="no"?>
<!DOCTYPE svg PUBLIC "-//W3C//DTD SVG 1.1//EN" "http://www.w3.org/Graphics/SVG/1.1/DTD/svg11.dtd"><svg t="1707056446124"
  class="icon" viewBox="0 0 1024 1024" version="1.1" xmlns="http://www.w3.org/2000/svg" p-id="9759"
  xmlns:xlink="http://www.w3.org/1999/xlink" width="200" height="200">
  <path d="M512.070621 0l443.409655 256v512L512.070621 1024 68.660966 768v-512z" fill="#181819" p-id="9760"></path>
  <path
    d="M207.218759 400.772414L727.463724 695.490207c8.280276 4.696276 12.32331 14.318345 9.886897 23.446069a21.009655 21.009655 0 0 1-20.303449 15.518896H286.437517a41.94869 41.94869 0 0 1-41.736827-36.546206L207.218759 400.772414z"
    fill="#F5C164" p-id="9761"></path>
  <path
    d="M834.577655 400.772414l-37.464276 297.136552a41.94869 41.94869 0 0 1-41.772138 36.546206H324.784552a21.009655 21.009655 0 0 1-20.338759-15.483586 20.780138 20.780138 0 0 1 9.886897-23.481379L834.577655 400.772414z"
    fill="#F5C164" p-id="9762"></path>
  <path
    d="M496.763586 353.103448L731.17131 675.539862c8.527448 11.723034 9.18069 26.676966 1.730207 38.964966-7.468138 12.288-21.857103 19.950345-37.499586 19.950344H298.125241c-15.624828 0-30.013793-7.662345-37.481931-19.950344a34.710069 34.710069 0 0 1 1.730207-38.964966L496.763586 353.103448z"
    fill="#FFE09E" p-id="9763"></path>
  <path
    d="M509.722483 353.103448l234.390069 322.436414c8.527448 11.723034 9.18069 26.676966 1.730207 38.964966-7.468138 12.288-21.857103 19.950345-37.499587 19.950344h-198.620689V353.103448z"
    fill="#F9CF7E" p-id="9764"></path>
  <path
    d="M443.798069 308.965517c0 22.068966 11.934897 42.478345 31.284965 53.512828a63.240828 63.240828 0 0 0 62.552276 0A61.669517 61.669517 0 0 0 568.920276 308.965517c0-34.127448-28.018759-61.793103-62.552276-61.793103-34.551172 0-62.569931 27.665655-62.569931 61.793103z"
    fill="#FFE19F" p-id="9765"></path>
  <path
    d="M797.66069 400.772414c0 17.037241 8.121379 32.768 21.292138 41.277793a38.664828 38.664828 0 0 0 42.584275 0C874.707862 433.540414 882.829241 417.809655 882.829241 400.772414 882.829241 374.466207 863.761655 353.103448 840.244966 353.103448c-23.51669 0-42.584276 21.345103-42.584276 47.668966zM158.914207 400.772414c0 26.323862 19.067586 47.668966 42.584276 47.668965C224.997517 448.441379 244.065103 427.096276 244.065103 400.772414S224.997517 353.103448 201.498483 353.103448C177.981793 353.103448 158.914207 374.448552 158.914207 400.772414z"
    fill="#FFE19F" p-id="9766"></path>
</svg>