<?xml version="1.0" standalone="no"?><!DOCTYPE svg PUBLIC "-//W3C//DTD SVG 1.1//EN" "http://www.w3.org/Graphics/SVG/1.1/DTD/svg11.dtd"><svg t="1707057139536" class="icon" viewBox="0 0 1024 1024" version="1.1" xmlns="http://www.w3.org/2000/svg" p-id="14366" xmlns:xlink="http://www.w3.org/1999/xlink" width="200" height="200"><path d="M426.63 449.66H87.17c-12.64 0-22.99-10.35-22.99-22.99V87.21c0-12.64 10.35-22.99 22.99-22.99h339.46c12.64 0 22.99 10.35 22.99 22.99v339.46c0 12.65-10.35 22.99-22.99 22.99zM936.81 449.66H597.35c-12.64 0-22.99-10.35-22.99-22.99V87.21c0-12.64 10.35-22.99 22.99-22.99h339.46c12.64 0 22.99 10.35 22.99 22.99v339.46c0 12.65-10.35 22.99-22.99 22.99zM426.86 959.78H87.4c-12.64 0-22.99-10.35-22.99-22.99V597.33c0-12.64 10.35-22.99 22.99-22.99h339.46c12.64 0 22.99 10.35 22.99 22.99v339.46c0 12.64-10.34 22.99-22.99 22.99zM936.83 959.78H597.37c-12.64 0-22.99-10.35-22.99-22.99V597.33c0-12.64 10.35-22.99 22.99-22.99h339.46c12.64 0 22.99 10.35 22.99 22.99v339.46c0 12.64-10.34 22.99-22.99 22.99z" fill="#ffffff" p-id="14367"></path></svg>