<?xml version="1.0" standalone="no"?><!DOCTYPE svg PUBLIC "-//W3C//DTD SVG 1.1//EN" "http://www.w3.org/Graphics/SVG/1.1/DTD/svg11.dtd"><svg t="1705760266269" class="icon" viewBox="0 0 1025 1024" version="1.1" xmlns="http://www.w3.org/2000/svg" p-id="10309" xmlns:xlink="http://www.w3.org/1999/xlink" width="200.1953125" height="200"><path d="M962.56 184.768H61.44c-33.792 0-61.44 27.648-61.44 61.44 0 33.792 27.648 61.44 61.44 61.44h81.92v597.056c0 42.24 34.56 76.8 76.8 76.8h583.68c42.24 0 76.8-34.56 76.8-76.8V307.648h81.92c33.792 0 61.44-27.648 61.44-61.44 0-33.792-27.648-61.44-61.44-61.44zM364.288 834.752c0 21.376-17.408 38.784-38.784 38.784-21.312 0-38.784-17.408-38.784-38.784V446.72c0-21.376 17.472-38.784 38.784-38.784 10.688 0 20.352 4.352 27.392 11.392a38.4896 38.4896 0 0 1 11.392 27.392v388.032z m186.496 0c0 21.376-17.472 38.784-38.784 38.784-21.312 0-38.784-17.408-38.784-38.784V446.72c0-21.376 17.472-38.784 38.784-38.784 10.624 0 20.352 4.352 27.392 11.392a38.4896 38.4896 0 0 1 11.392 27.392v388.032z m186.496 0c0 21.376-17.472 38.784-38.784 38.784-21.376 0-38.784-17.408-38.784-38.784V446.72c0-21.376 17.408-38.784 38.784-38.784 10.624 0 20.352 4.352 27.392 11.392a38.4896 38.4896 0 0 1 11.392 27.392v388.032zM433.536 136.256h156.928c25.792 0 46.912-21.12 46.912-46.912s-21.12-46.912-46.912-46.912H433.536c-25.792 0-46.912 21.12-46.912 46.912s21.184 46.912 46.912 46.912z" fill="#ffffff" p-id="10310"></path></svg>