<?xml version="1.0" standalone="no"?><!DOCTYPE svg PUBLIC "-//W3C//DTD SVG 1.1//EN" "http://www.w3.org/Graphics/SVG/1.1/DTD/svg11.dtd"><svg t="1709819358004" class="icon" viewBox="0 0 1024 1024" version="1.1" xmlns="http://www.w3.org/2000/svg" p-id="6309" xmlns:xlink="http://www.w3.org/1999/xlink" width="200" height="200"><path d="M463.526104 334.526984A239.695238 239.695238 0 0 0 149.31658 20.31746L264.008643 135.060317a59.885714 59.885714 0 0 1 0 84.656085l-42.328042 42.328042a59.902646 59.902646 0 0 1-84.656085 0L22.230866 147.386243a239.695238 239.695238 0 0 0 314.209523 314.209524L577.490125 702.645503a59.902646 59.902646 0 0 0 84.656085 0l42.328042-42.328043a59.919577 59.919577 0 0 0 0-84.656084z" fill="#ffffff" p-id="6310"></path><path d="M559.847797 689.100529a239.695238 239.695238 0 0 0 314.091005 314.344974l-114.708995-114.793651a59.902646 59.902646 0 0 1 0-84.656085l42.328043-42.328042a59.902646 59.902646 0 0 1 84.656084 0l114.708995 114.793651A239.695238 239.695238 0 0 0 686.967374 562.116402L446.002294 320.931217a59.919577 59.919577 0 0 0-84.656084 0l-42.328043 42.328042a59.902646 59.902646 0 0 0 0 84.656085z" fill="#ffffff" p-id="6311"></path></svg>