<?xml version="1.0" standalone="no"?><!DOCTYPE svg PUBLIC "-//W3C//DTD SVG 1.1//EN" "http://www.w3.org/Graphics/SVG/1.1/DTD/svg11.dtd"><svg t="1709818989684" class="icon" viewBox="0 0 1024 1024" version="1.1" xmlns="http://www.w3.org/2000/svg" p-id="4245" xmlns:xlink="http://www.w3.org/1999/xlink" width="200" height="200"><path d="M870.4 358.4c0-28.8-22.4-51.2-51.2-51.2-28.8 0-51.2 22.4-51.2 51.2 0 28.8 22.4 51.2 51.2 51.2 28.8 0 51.2-22.4 51.2-51.2z m0 153.6c0-28.8-22.4-51.2-51.2-51.2-28.8 0-51.2 22.4-51.2 51.2 0 28.8 22.4 51.2 51.2 51.2 28.8 0 51.2-22.4 51.2-51.2z m-153.6-153.6c0-28.8-22.4-51.2-51.2-51.2-28.8 0-51.2 22.4-51.2 51.2 0 28.8 22.4 51.2 51.2 51.2 28.8 0 51.2-22.4 51.2-51.2z m0 153.6c0-28.8-22.4-51.2-51.2-51.2-28.8 0-51.2 22.4-51.2 51.2 0 28.8 22.4 51.2 51.2 51.2 28.8 0 51.2-22.4 51.2-51.2z m0 208c0-28.8-22.4-54.4-51.2-54.4h-307.2c-28.8 0-51.2 22.4-51.2 51.2v3.2c0 28.8 22.4 51.2 51.2 51.2h307.2c28.8-3.2 51.2-25.6 51.2-51.2zM256 358.4c0-28.8-22.4-51.2-51.2-51.2-28.8 0-51.2 22.4-51.2 51.2 0 28.8 22.4 51.2 51.2 51.2 28.8 0 51.2-22.4 51.2-51.2zM256 512c0-28.8-22.4-51.2-51.2-51.2-28.8 0-51.2 22.4-51.2 51.2 0 28.8 22.4 51.2 51.2 51.2 28.8 0 51.2-22.4 51.2-51.2z m51.2 0c0 28.8 22.4 51.2 51.2 51.2 28.8 0 51.2-22.4 51.2-51.2 0-28.8-22.4-51.2-51.2-51.2-28.8 0-51.2 22.4-51.2 51.2z m0-153.6c0 28.8 22.4 51.2 51.2 51.2 28.8 0 51.2-22.4 51.2-51.2 0-28.8-22.4-51.2-51.2-51.2-28.8 0-51.2 22.4-51.2 51.2z m153.6 153.6c0 28.8 22.4 51.2 51.2 51.2 28.8 0 51.2-22.4 51.2-51.2 0-28.8-22.4-51.2-51.2-51.2-28.8 0-51.2 22.4-51.2 51.2z m0-153.6c0 28.8 22.4 51.2 51.2 51.2 28.8 0 51.2-22.4 51.2-51.2 0-28.8-22.4-51.2-51.2-51.2-28.8 0-51.2 22.4-51.2 51.2z m460.8-204.8C979.2 153.6 1024 198.4 1024 256v512c0 54.4-44.8 99.2-102.4 102.4H102.4C44.8 870.4 0 825.6 0 768V256c0-54.4 44.8-99.2 102.4-102.4h819.2z" p-id="4246" fill="#ffffff"></path></svg>