<?xml version="1.0" standalone="no"?><!DOCTYPE svg PUBLIC "-//W3C//DTD SVG 1.1//EN" "http://www.w3.org/Graphics/SVG/1.1/DTD/svg11.dtd"><svg t="1705759978935" class="icon" viewBox="0 0 1024 1024" version="1.1" xmlns="http://www.w3.org/2000/svg" p-id="9273" xmlns:xlink="http://www.w3.org/1999/xlink" width="200" height="200"><path d="M148.48 921.6C66.56 921.6 0 855.04 0 773.12V153.6c0-87.04 66.56-153.6 153.6-153.6h716.8c30.72 0 51.2 20.48 51.2 51.2s-20.48 51.2-51.2 51.2H153.6c-30.72 0-51.2 20.48-51.2 51.2v619.52c0 25.6 20.48 46.08 46.08 46.08 30.72 0 51.2 20.48 51.2 51.2s-20.48 51.2-51.2 51.2z" p-id="9274" fill="#ffffff"></path><path d="M921.6 204.8H307.2c-56.32 0-102.4 46.08-102.4 102.4v614.4c0 56.32 46.08 102.4 102.4 102.4h614.4c56.32 0 102.4-46.08 102.4-102.4V307.2c0-56.32-46.08-102.4-102.4-102.4z m-102.4 460.8h-153.6v153.6h-102.4v-153.6H409.6v-102.4h153.6V409.6h102.4v153.6h153.6v102.4z" p-id="9275" fill="#ffffff"></path></svg>