<?xml version="1.0" standalone="no"?>
<!DOCTYPE svg PUBLIC "-//W3C//DTD SVG 1.1//EN" "http://www.w3.org/Graphics/SVG/1.1/DTD/svg11.dtd"><svg t="1708354572268"
  class="icon" viewBox="0 0 1024 1024" version="1.1" xmlns="http://www.w3.org/2000/svg" p-id="12816"
  xmlns:xlink="http://www.w3.org/1999/xlink" width="200" height="200">
  <path
    d="M842.6 423.8h-66.4c-19 0-28.6-23-15.1-36.5l46.9-46.9c8.3-8.3 8.3-21.9 0-30.2l-94.3-94.3c-8.3-8.3-21.9-8.3-30.2 0l-46.9 46.9c-13.5 13.5-36.5 3.9-36.5-15.1v-66.4c0-11.8-9.6-21.4-21.4-21.4H445.5c-11.8 0-21.4 9.6-21.4 21.4v66.4c0 19-23 28.6-36.5 15.1l-46.9-46.9c-8.3-8.3-21.9-8.3-30.2 0l-94.3 94.3c-8.3 8.3-8.3 21.9 0 30.2l46.9 46.9c13.5 13.5 3.9 36.5-15.1 36.5h-66.4c-11.8 0-21.4 9.6-21.4 21.4v133.3c0 11.8 9.6 21.4 21.4 21.4H248c19 0 28.6 23 15.1 36.5l-46.9 46.9c-8.3 8.3-8.3 21.9 0 30.2l94.3 94.3c8.3 8.3 21.9 8.3 30.2 0l46.9-46.9c13.5-13.5 36.5-3.9 36.5 15.1v66.4c0 11.8 9.6 21.4 21.4 21.4h133.3c11.8 0 21.4-9.6 21.4-21.4V776c0-19 23-28.6 36.5-15.1l46.9 46.9c8.3 8.3 21.9 8.3 30.2 0l94.3-94.3c8.3-8.3 8.3-21.9 0-30.2l-46.9-46.9c-13.5-13.5-3.9-36.5 15.1-36.5h66.4c11.8 0 21.4-9.6 21.4-21.4V445.2c-0.1-11.8-9.7-21.4-21.5-21.4z m-33.7 98.1c0 11.4-9.3 20.7-20.7 20.7h-41.9c-5.4 42.8-22.2 82.1-47.3 114.7l29.5 29.5c8.1 8.1 8.1 21.2 0 29.3L715 729.5c-8.1 8.1-21.2 8.1-29.3 0l-29.4-29.4c-32.6 25.3-71.9 42.3-114.8 47.9v41.2c0 11.4-9.3 20.7-20.7 20.7h-19.1c-11.4 0-20.7-9.3-20.7-20.7v-41.1c-43.1-5.4-82.5-22.3-115.2-47.6l-28.9 28.9c-8.1 8.1-21.2 8.1-29.3 0l-13.5-13.5c-8.1-8.1-8.1-21.2 0-29.3l28.9-28.9c-25.3-32.7-42.3-72.2-47.8-115.3h-40.9c-11.4 0-20.7-9.3-20.7-20.7v-19.1c0-11.4 9.3-20.7 20.7-20.7h40.9c5.5-43 22.5-82.4 47.9-115.1L294.2 338c-8.1-8.1-8.1-21.2 0-29.3l13.5-13.5c8.1-8.1 21.2-8.1 29.3 0l29.2 29.2c32.7-25.1 72-42 115-47.4v-41.6c0-11.4 9.3-20.7 20.7-20.7H521c11.4 0 20.7 9.3 20.7 20.7v41.7c42.8 5.5 82 22.5 114.5 47.7l29.6-29.6c8.1-8.1 21.2-8.1 29.3 0l13.5 13.5c8.1 8.1 8.1 21.2 0 29.3l-29.7 29.7c25.1 32.5 42 71.7 47.5 114.5h41.9c11.4 0 20.7 9.3 20.7 20.7v19z"
    fill="#ffffff" p-id="12817"></path>
  <path
    d="M511.1 340c-94.9 0-171.9 77-171.9 171.9s77 171.9 171.9 171.9 171.9-77 171.9-172S606.1 340 511.1 340z m0 286.8c-63.5 0-115-51.5-115-115s51.5-115 115-115 115 51.5 115 115-51.5 115-115 115z"
    fill="#ffffff" p-id="12818"></path>
</svg>