<?xml version="1.0" standalone="no"?><!DOCTYPE svg PUBLIC "-//W3C//DTD SVG 1.1//EN" "http://www.w3.org/Graphics/SVG/1.1/DTD/svg11.dtd"><svg t="1709645960202" class="icon" viewBox="0 0 1024 1024" version="1.1" xmlns="http://www.w3.org/2000/svg" p-id="5141" xmlns:xlink="http://www.w3.org/1999/xlink" width="200" height="200"><path d="M882.176 128c18.474667 0 33.450667 14.933333 33.450667 33.408v553.514667c0 18.474667-14.933333 33.408-33.450667 33.408h-347.904v80.853333h228.565333a33.408 33.408 0 1 1 0 66.816H238.08a33.408 33.408 0 1 1 0-66.816h229.333333v-80.853333H118.741333A33.408 33.408 0 0 1 85.333333 714.922667V161.408C85.333333 142.933333 100.266667 128 118.741333 128z m-33.408 66.816H152.149333v486.698667h696.618667V194.816zM306.389333 367.189333c18.474667 0 33.408 14.933333 33.408 33.408v166.101334a33.408 33.408 0 1 1-66.816 0V400.64c0-18.474667 14.933333-33.408 33.408-33.408z m194.261334-94.976c18.474667 0 33.408 14.933333 33.408 33.408v261.12a33.408 33.408 0 1 1-66.816-0.128V305.621333c0-18.432 14.933333-33.408 33.408-33.408z m195.285333 154.709334c18.474667 0 33.408 14.933333 33.408 33.408v106.368a33.408 33.408 0 1 1-66.816 0V460.373333c0-18.432 14.933333-33.408 33.408-33.408z" fill="#ffffff" p-id="5142"></path></svg>